<svg width="208" height="62" viewBox="0 0 208 62" fill="none" xmlns="http://www.w3.org/2000/svg">
<path d="M0.615845 46V44.5938L4.39709 44.2812L19.1783 0.125H20.5846L35.8658 44.2812L39.9908 44.5938V46H23.2721V44.5938L27.4908 44.2812L23.8033 33.0625H9.80334L6.17834 44.2812L10.3971 44.5938V46H0.615845ZM10.3658 31.1875L23.1158 30.9375L16.8658 11.75H16.7408L10.3658 31.1875ZM40.9283 54C40.9283 52.8542 41.1888 51.8333 41.7096 50.9375C42.2513 50.0417 42.9179 49.3542 43.7096 48.875C44.5013 48.4167 45.2513 48.0625 45.9596 47.8125C46.6888 47.5833 47.3346 47.4688 47.8971 47.4688V47.4062C44.0221 46.2396 42.0846 44.1458 42.0846 41.125C42.0846 39.3125 42.7304 37.75 44.0221 36.4375C45.3346 35.125 46.7408 34.25 48.2408 33.8125V33.75C46.345 32.875 44.9075 31.6354 43.9283 30.0312C42.9492 28.4062 42.4596 26.5938 42.4596 24.5938C42.4596 21.4896 43.6992 18.8958 46.1783 16.8125C48.6783 14.7292 51.7513 13.6875 55.3971 13.6875C58.8554 13.6875 61.7304 14.5938 64.0221 16.4062C65.7096 13.2188 67.7408 11.625 70.1158 11.625C71.3242 11.625 72.2617 11.9688 72.9283 12.6562C73.6158 13.3438 73.9596 14.2188 73.9596 15.2812C73.9596 16.2188 73.6783 17.0104 73.1158 17.6562C72.5742 18.2812 71.8763 18.5938 71.0221 18.5938C70.0638 18.5938 69.2825 18.3333 68.6783 17.8125C68.095 17.2708 67.8033 16.5312 67.8033 15.5938C67.8033 14.9479 67.9179 14.4375 68.1471 14.0625V13.9375C67.6054 14.0417 67.0638 14.4271 66.5221 15.0938C66.0013 15.7396 65.5533 16.5312 65.1783 17.4688C67.0742 19.4896 68.0221 21.8438 68.0221 24.5312C68.0221 27.6562 66.8242 30.2083 64.4283 32.1875C62.0325 34.1667 59.0013 35.1562 55.3346 35.1562C53.2929 35.1562 51.4596 34.8958 49.8346 34.375C48.5846 34.8125 47.6054 35.3646 46.8971 36.0312C46.1888 36.6771 45.8346 37.3542 45.8346 38.0625C45.8346 39.9792 49.2929 40.9375 56.2096 40.9375C59.0638 40.9375 61.3971 41.0938 63.2096 41.4062C65.0221 41.6979 66.5117 42.2188 67.6783 42.9688C68.845 43.6979 69.6575 44.6562 70.1158 45.8438C70.595 47.0312 70.8346 48.5521 70.8346 50.4062C70.8346 51.4062 70.6679 52.4062 70.3346 53.4062C70.0221 54.4062 69.4804 55.3958 68.7096 56.375C67.9596 57.3542 67.0221 58.2188 65.8971 58.9688C64.7721 59.7188 63.3346 60.3229 61.5846 60.7812C59.8554 61.2396 57.9179 61.4688 55.7721 61.4688C54.4804 61.4688 53.22 61.4167 51.9908 61.3125C50.7825 61.2083 49.4804 60.9896 48.0846 60.6562C46.6888 60.3229 45.4804 59.8958 44.4596 59.375C43.4596 58.8542 42.6158 58.125 41.9283 57.1875C41.2617 56.2708 40.9283 55.2083 40.9283 54ZM46.4908 53.0312C46.4908 54.3229 46.7929 55.4271 47.3971 56.3438C48.0221 57.2812 48.8554 57.9896 49.8971 58.4688C50.9596 58.9479 52.0638 59.2917 53.2096 59.5C54.3554 59.7292 55.595 59.8438 56.9283 59.8438C60.1367 59.8438 62.6783 59.2188 64.5533 57.9688C66.4283 56.7188 67.3658 55.0938 67.3658 53.0938C67.3658 51.8021 67.0013 50.7917 66.2721 50.0625C65.5429 49.3333 64.4908 48.8438 63.1158 48.5938C61.7617 48.3646 60.3867 48.2292 58.9908 48.1875L53.9908 48.0938C52.0533 48.0521 50.4492 47.9271 49.1783 47.7188L49.1471 47.75C47.3763 49.0208 46.4908 50.7812 46.4908 53.0312ZM50.1471 24.4062C50.1471 27.4271 50.5742 29.7396 51.4283 31.3438C52.3033 32.9479 53.5846 33.75 55.2721 33.75C58.6471 33.75 60.3346 30.6979 60.3346 24.5938C60.3346 21.3021 59.9492 18.8958 59.1783 17.375C58.4075 15.8542 57.1471 15.0938 55.3971 15.0938C53.7096 15.0938 52.4075 15.9062 51.4908 17.5312C50.595 19.1562 50.1471 21.4479 50.1471 24.4062ZM75.6783 15.8438L82.2096 15.1562L86.6158 14L87.1783 14.9062L87.0533 19.125H87.1783C89.6575 15.5 92.8658 13.6875 96.8033 13.6875C97.5533 13.6875 98.2721 13.75 98.9596 13.875C99.6471 14 100.408 14.2812 101.241 14.7188C102.074 15.1562 102.793 15.7292 103.397 16.4375C104.001 17.1458 104.512 18.1562 104.928 19.4688C105.345 20.7812 105.553 22.3125 105.553 24.0625V44.4062L108.741 44.7188V46H94.6783V44.7188L97.8658 44.4062V23.1562C97.8658 18.7188 96.4388 16.5 93.5846 16.5C91.7096 16.5 90.1679 17.3542 88.9596 19.0625C87.7721 20.7708 87.1783 23.0104 87.1783 25.7812V44.4062L90.3971 44.7188V46H76.3033V44.7188L79.5221 44.4062V17.0625L75.7408 17.125L75.6783 15.8438ZM112.835 30.3125C112.835 28.6875 112.991 27.1042 113.303 25.5625C113.616 24 114.126 22.5 114.835 21.0625C115.543 19.625 116.408 18.3646 117.428 17.2812C118.449 16.1979 119.71 15.3333 121.21 14.6875C122.73 14.0208 124.408 13.6875 126.241 13.6875C127.97 13.6875 129.522 13.9375 130.897 14.4375C132.272 14.9167 133.418 15.5938 134.335 16.4688C135.251 17.3438 136.012 18.4167 136.616 19.6875C137.22 20.9375 137.647 22.3021 137.897 23.7812C138.168 25.2396 138.303 26.8438 138.303 28.5938L137.46 29.375H120.835V31.2812C120.835 40.3646 123.418 44.9062 128.585 44.9062C132.251 44.9062 135.178 43.0729 137.366 39.4062L138.585 40.1562C135.897 44.6771 132.074 46.9375 127.116 46.9375C122.324 46.9375 118.741 45.4583 116.366 42.5C114.012 39.5417 112.835 35.4792 112.835 30.3125ZM120.835 27.9688L130.928 27.5625C130.991 26.5 131.022 25.4792 131.022 24.5C131.022 21.4792 130.658 19.1562 129.928 17.5312C129.22 15.9062 128.033 15.0938 126.366 15.0938C125.366 15.0938 124.501 15.4271 123.772 16.0938C123.064 16.7396 122.512 17.6771 122.116 18.9062C121.72 20.1354 121.418 21.4792 121.21 22.9375C121.022 24.375 120.897 26.0521 120.835 27.9688ZM142.272 3.875V2.59375L148.803 1.90625L153.21 0.75L153.772 1.65625V44.4062L156.991 44.7188V46H142.897V44.7188L146.116 44.4062V3.875H142.272ZM160.147 3.875V2.59375L166.678 1.90625L171.085 0.75L171.647 1.65625V44.4062L174.866 44.7188V46H160.772V44.7188L163.991 44.4062V3.875H160.147ZM179.241 30.5C179.241 27.3542 179.845 24.5 181.053 21.9375C182.283 19.375 183.991 17.3646 186.178 15.9062C188.387 14.4271 190.876 13.6875 193.647 13.6875C195.939 13.6875 198.001 14.1667 199.835 15.125C201.689 16.0625 203.168 17.3229 204.272 18.9062C205.397 20.4896 206.251 22.2604 206.835 24.2188C207.439 26.1562 207.741 28.1875 207.741 30.3125C207.741 33.375 207.158 36.1667 205.991 38.6875C204.824 41.2083 203.147 43.2188 200.96 44.7188C198.793 46.1979 196.335 46.9375 193.585 46.9375C191.147 46.9375 188.991 46.5104 187.116 45.6562C185.262 44.7812 183.762 43.5833 182.616 42.0625C181.491 40.5208 180.647 38.7812 180.085 36.8438C179.522 34.9062 179.241 32.7917 179.241 30.5ZM187.241 30.125C187.241 32.4375 187.355 34.5104 187.585 36.3438C187.814 38.1562 188.168 39.7708 188.647 41.1875C189.126 42.5833 189.772 43.6562 190.585 44.4062C191.397 45.1562 192.355 45.5312 193.46 45.5312C197.647 45.5312 199.741 40.5208 199.741 30.5C199.741 27.9792 199.637 25.8125 199.428 24C199.241 22.1875 198.908 20.5938 198.428 19.2188C197.97 17.8229 197.324 16.7917 196.491 16.125C195.658 15.4375 194.647 15.0938 193.46 15.0938C192.355 15.0938 191.397 15.4688 190.585 16.2188C189.772 16.9688 189.126 18.0312 188.647 19.4062C188.168 20.7812 187.814 22.3542 187.585 24.125C187.355 25.8958 187.241 27.8958 187.241 30.125Z" fill="white"/>
</svg>
